<svg xmlns="http://www.w3.org/2000/svg" viewBox="0 0 440 100" width="440" height="100" role="img"><title>Unprompted</title><g fill="currentColor" transform="translate(12 76)"><path d="M5.874837890625 -50.25599999999999H13.890462890624999V-19.274976562499997Q13.890462890624999 -15.045626953124998 14.934858398437498 -12.169300781249998Q15.97925390625 -9.292974609375 18.3459287109375 -7.8368115234374995Q20.712603515625 -6.3806484375 24.653953124999997 -6.3806484375Q28.595302734374997 -6.3806484375 30.946605468749997 -7.8368115234374995Q33.297908203125 -9.292974609375 34.357675781249995 -12.169300781249998Q35.417443359375 -15.045626953124998 35.417443359375 -19.274976562499997V-50.25599999999999H43.433068359375V-20.592Q43.433068359375 -13.258511718749999 41.5922080078125 -8.485883789062498Q39.75134765625 -3.713255859375 35.596371093749994 -1.4246279296875Q31.441394531249998 0.8639999999999999 24.530185546875 0.8639999999999999Q17.6189765625 0.8639999999999999 13.546511718749999 -1.4246279296875Q9.474046874999999 -3.713255859375 7.674442382812499 -8.485883789062498Q5.874837890625 -13.258511718749999 5.874837890625 -20.592Z M62.798695312499994 0.0H54.94809374999999V-37.428697265625H62.798695312499994V-31.2269765625H63.14818359374999Q64.362462890625 -34.302744140624995 66.8618349609375 -36.297720703124995Q69.36120703124999 -38.292697265624994 73.66018359374999 -38.292697265624994Q79.42018359374998 -38.292697265624994 82.62983496093749 -34.49628835362468Q85.83948632812499 -30.699879441624365 85.83948632812499 -23.770511718749997V0.0H77.98888476562499V-22.823999999999998Q77.98888476562499 -27.19680228473471 76.27993066406249 -29.414890400179853Q74.5709765625 -31.632978515625 70.917626953125 -31.632978515625Q68.86504570312499 -31.632978515625 67.00489394531249 -30.938466796874998Q65.14474218749999 -30.243955078124998 63.971718749999994 -28.809283761160714Q62.798695312499994 -27.374612444196426 62.798695312499994 -25.222605468749997Z M96.70809375 14.399999999999999V-37.428697265625H104.55869531249999V-31.257720703125H104.87743945312499Q106.0407421875 -34.632 108.8641142578125 -36.46234863281249Q111.687486328125 -38.292697265624994 115.441998046875 -38.292697265624994Q120.183486328125 -38.292697265624994 123.4906259765625 -35.962813476562495Q126.797765625 -33.632929687499995 128.5569052734375 -29.2615576171875Q130.316044921875 -24.890185546875 130.316044921875 -18.729720703124997Q130.316044921875 -12.610511718749999 128.5569052734375 -8.2031396484375Q126.797765625 -3.7957675781249995 123.4906259765625 -1.4658837890624998Q120.183486328125 0.8639999999999999 115.441998046875 0.8639999999999999Q111.687486328125 0.8639999999999999 108.92599804687501 -1.0023486328125Q106.164509765625 -2.868697265625 104.87743945312499 -6.1709765625H104.55869531249999V14.399999999999999ZM113.02790625 -5.79571875Q117.12455859375 -5.79571875 119.5790009765625 -8.4714169921875Q122.033443359375 -11.147115234374999 122.033443359375 -15.500232421875V-21.92846484375Q122.033443359375 -26.312326171874997 119.5790009765625 -28.97265234375Q117.12455859375 -31.632978515625 113.02790625 -31.632978515625Q110.681859375 -31.632978515625 108.7471845703125 -30.819955078125Q106.812509765625 -30.006931640624998 105.6856025390625 -28.561280273437497Q104.55869531249999 -27.11562890625 104.55869531249999 -25.181349609374998V-12.494882812499998Q104.55869531249999 -10.395580078124999 105.6856025390625 -8.888044921875Q106.812509765625 -7.380509765625 108.7471845703125 -6.588114257812499Q110.681859375 -5.79571875 113.02790625 -5.79571875Z M147.1826953125 0.0H139.33209374999998V-37.428697265625H147.1826953125V-30.004558593749998H147.54269531249997Q148.09846289062497 -31.92753515625 149.37423046874997 -33.6138837890625Q150.64999804687497 -35.300232421874995 152.73313769531248 -36.36446484375Q154.81627734375 -37.428697265625 157.80953320312497 -37.428697265625H159.88781249999997V-29.885537109374997H156.81125390625Q153.71525390624998 -29.885537109374997 151.56011425781247 -29.180513671874998Q149.404974609375 -28.475490234375 148.2938349609375 -27.168978515625Q147.1826953125 -25.862466796874997 147.1826953125 -23.878001953124997Z M181.14148828125 0.8639999999999999Q175.92753515624997 0.8639999999999999 172.07067480468748 -1.5479999999999998Q168.213814453125 -3.9599999999999995 166.08981445312497 -8.362116210937499Q163.96581445312498 -12.764232421874999 163.96581445312498 -18.729720703124997Q163.96581445312498 -24.725953124999997 166.08981445312497 -29.097325195312497Q168.213814453125 -33.468697265624996 172.07067480468748 -35.880697265624995Q175.92753515624997 -38.292697265624994 181.14148828125 -38.292697265624994Q186.35544140624998 -38.292697265624994 190.2123017578125 -35.880697265624995Q194.069162109375 -33.468697265624996 196.19316210937498 -29.097325195312497Q198.31716210937498 -24.725953124999997 198.31716210937498 -18.729720703124997Q198.31716210937498 -12.764232421874999 196.19316210937498 -8.362116210937499Q194.069162109375 -3.9599999999999995 190.2123017578125 -1.5479999999999998Q186.35544140624998 0.8639999999999999 181.14148828125 0.8639999999999999ZM181.14148828125 -5.66223046875Q185.175861328125 -5.66223046875 187.60521093749998 -8.1579287109375Q190.03456054687499 -10.653626953124999 190.03456054687499 -15.5430703125V-21.885626953124998Q190.03456054687499 -26.805814453125 187.60521093749998 -29.286140624999998Q185.175861328125 -31.766466796874997 181.14148828125 -31.766466796874997Q177.179115234375 -31.766466796874997 174.713765625 -29.286140624999998Q172.248416015625 -26.805814453125 172.248416015625 -21.885626953124998V-15.5430703125Q172.248416015625 -10.653626953124999 174.713765625 -8.1579287109375Q177.179115234375 -5.66223046875 181.14148828125 -5.66223046875Z M214.8626953125 0.0H207.01209375V-37.428697265625H214.8626953125V-31.2269765625H215.21218359374998Q216.34395117187498 -34.168464843749994 218.68355566406248 -36.23058105468749Q221.02316015625 -38.292697265624994 225.28167187499997 -38.292697265624994Q229.045904296875 -38.292697265624994 231.98818359375 -36.4518369140625Q234.930462890625 -34.6109765625 236.31948632812498 -30.701953125H236.49423046874998Q237.50223046874999 -33.78744140625 240.41257910156247 -36.040069335937496Q243.32292773437499 -38.292697265624994 247.89046289062497 -38.292697265624994Q253.48623046874997 -38.292697265624994 256.56725390625 -34.49246484375Q259.64827734375 -30.692232421874998 259.64827734375 -23.770511718749997V0.0H251.79767578124998V-22.823999999999998Q251.79767578124998 -27.197349609375 250.14574511718746 -29.415164062499997Q248.49381445312497 -31.632978515625 244.92218554687497 -31.632978515625Q242.9668828125 -31.632978515625 241.1968359375 -30.938466796874998Q239.42678906249998 -30.243955078124998 238.34113769531248 -28.813675781249998Q237.255486328125 -27.383396484374998 237.255486328125 -25.222605468749997V0.0H229.40488476562498V-22.823999999999998Q229.40488476562498 -27.23860546875 227.73758203124999 -29.435791992187497Q226.070279296875 -31.632978515625 222.61190624999998 -31.632978515625Q220.68734765624998 -31.632978515625 218.89667285156247 -30.938466796874998Q217.105998046875 -30.243955078124998 215.9843466796875 -28.813675781249998Q214.8626953125 -27.383396484374998 214.8626953125 -25.222605468749997Z M270.51609375 14.399999999999999V-37.428697265625H278.3666953125V-31.257720703125H278.68543945312496Q279.84874218749997 -34.632 282.6721142578125 -36.46234863281249Q285.49548632812497 -38.292697265624994 289.24999804687496 -38.292697265624994Q293.99148632812495 -38.292697265624994 297.29862597656245 -35.962813476562495Q300.605765625 -33.632929687499995 302.3649052734375 -29.2615576171875Q304.124044921875 -24.890185546875 304.124044921875 -18.729720703124997Q304.124044921875 -12.610511718749999 302.3649052734375 -8.2031396484375Q300.605765625 -3.7957675781249995 297.29862597656245 -1.4658837890624998Q293.99148632812495 0.8639999999999999 289.24999804687496 0.8639999999999999Q285.49548632812497 0.8639999999999999 282.73399804687494 -1.0023486328125Q279.972509765625 -2.868697265625 278.68543945312496 -6.1709765625H278.3666953125V14.399999999999999ZM286.83590625 -5.79571875Q290.93255859374995 -5.79571875 293.3870009765625 -8.4714169921875Q295.841443359375 -11.147115234374999 295.841443359375 -15.500232421875V-21.92846484375Q295.841443359375 -26.312326171874997 293.3870009765625 -28.97265234375Q290.93255859374995 -31.632978515625 286.83590625 -31.632978515625Q284.489859375 -31.632978515625 282.55518457031246 -30.819955078125Q280.620509765625 -30.006931640624998 279.4936025390625 -28.561280273437497Q278.3666953125 -27.11562890625 278.3666953125 -25.181349609374998V-12.494882812499998Q278.3666953125 -10.395580078124999 279.4936025390625 -8.888044921875Q280.620509765625 -7.380509765625 282.55518457031246 -6.588114257812499Q284.489859375 -5.79571875 286.83590625 -5.79571875Z M329.89925390625 0.0H323.06818359375Q319.04013867187496 0.0 316.902744140625 -2.1891621093749998Q314.765349609375 -4.3783242187499996 314.765349609375 -8.210601562499999V-31.0052109375H308.98353515624996V-37.428697265625H312.101349609375Q314.09769257812496 -37.428697265625 314.82712558593744 -38.307673828125Q315.55655859374997 -39.186650390625 315.55655859374997 -41.089394531249994V-47.69395312499999H322.615951171875V-37.428697265625H330.47525390625V-31.0052109375H322.615951171875V-6.423486328125H329.89925390625Z M353.436697265625 0.8639999999999999Q348.089255859375 0.8639999999999999 344.2069072265625 -1.5479999999999998Q340.32455859375 -3.9599999999999995 338.2211865234375 -8.362116210937499Q336.117814453125 -12.764232421874999 336.117814453125 -18.729720703124997Q336.117814453125 -24.664464843749997 338.19044238281253 -29.051208984375Q340.2630703125 -33.437953125 344.099302734375 -35.865325195312494Q347.93553515625 -38.292697265624994 353.252232421875 -38.292697265624994Q358.773626953125 -38.292697265624994 362.4812314453125 -35.798976562499995Q366.1888359375 -33.305255859374995 368.07134765625 -29.078279296874996Q369.953859375 -24.851302734374997 369.953859375 -19.656791015625V-16.736326171875H344.28716015625V-15.500232421875Q344.28716015625 -11.13739453125 346.83423046875 -8.3638125Q349.38130078125 -5.59023046875 354.165626953125 -5.59023046875Q357.632138671875 -5.59023046875 360.014185546875 -7.1232539062499995Q362.396232421875 -8.656277343749998 363.989953125 -11.198882812499999L368.616603515625 -6.678931640625Q366.509162109375 -3.3038613281249996 362.58555761718753 -1.2199306640624998Q358.661953125 0.8639999999999999 353.436697265625 0.8639999999999999ZM353.34446484375 -32.177443359375Q350.648138671875 -32.177443359375 348.60506835937497 -30.937280273437498Q346.561998046875 -29.697117187499998 345.4245791015625 -27.4946748046875Q344.28716015625 -25.292232421875 344.28716015625 -22.421162109374997V-21.88641796875H361.702001953125V-22.616929687499997Q361.702001953125 -25.49851171875 360.7085830078125 -27.639070312499996Q359.7151640625 -29.779628906249997 357.83672167968746 -30.978536132812497Q355.958279296875 -32.177443359375 353.34446484375 -32.177443359375Z M402.17414062499995 0.0V-6.1709765625H401.855396484375Q400.56832617187496 -2.868697265625 397.80683789062493 -1.0023486328125Q395.04534960937497 0.8639999999999999 391.29083789062497 0.8639999999999999Q386.621349609375 0.8639999999999999 383.2782099609375 -1.4658837890624998Q379.9350703125 -3.7957675781249995 378.1759306640625 -8.2031396484375Q376.416791015625 -12.610511718749999 376.416791015625 -18.729720703124997Q376.416791015625 -24.890185546875 378.1759306640625 -29.2615576171875Q379.9350703125 -33.632929687499995 383.2782099609375 -35.962813476562495Q386.621349609375 -38.292697265624994 391.29083789062497 -38.292697265624994Q395.04534960937497 -38.292697265624994 397.8687216796875 -36.46234863281249Q400.69209374999997 -34.632 401.855396484375 -31.257720703125H402.17414062499995V-53.279999999999994H410.0247421875V0.0ZM393.7049296875 -5.79571875Q396.092232421875 -5.79571875 398.006279296875 -6.588114257812499Q399.920326171875 -7.380509765625 401.04723339843747 -8.888044921875Q402.17414062499995 -10.395580078124999 402.17414062499995 -12.494882812499998V-25.181349609374998Q402.17414062499995 -27.11562890625 401.04723339843747 -28.561280273437497Q399.920326171875 -30.006931640624998 398.006279296875 -30.819955078125Q396.092232421875 -31.632978515625 393.7049296875 -31.632978515625Q389.649533203125 -31.632978515625 387.17446289062497 -28.97265234375Q384.69939257812496 -26.312326171874997 384.69939257812496 -21.92846484375V-15.500232421875Q384.69939257812496 -11.147115234374999 387.17446289062497 -8.4714169921875Q389.649533203125 -5.79571875 393.7049296875 -5.79571875Z"/></g></svg>
